HIERARCHY
ROOT hip
{
	OFFSET 0.000000 0.000000 0.000000 
	CHANNELS 6 Xposition Yposition Zposition Xrotation Zrotation Yrotation
	JOINT abdomen
	{
		OFFSET 0.000000 3.402643 0.000000 
		CHANNELS 3 Xrotation Zrotation Yrotation
		JOINT chest
		{
			OFFSET 0.000000 8.438565 -0.680529 
			CHANNELS 3 Xrotation Zrotation Yrotation
			JOINT neck
			{
				OFFSET 0.000000 10.207942 -0.272212 
				CHANNELS 3 Xrotation Zrotation Yrotation
				JOINT head
				{
					OFFSET 0.000000 3.130431 0.000000 
					CHANNELS 3 Xrotation Zrotation Yrotation
					End Site
					{
						OFFSET 0.000000 3.130435 0.000000 
					}
				}
			}
			JOINT lCollar
			{
				OFFSET 3.470700 6.669187 -0.816635 
				CHANNELS 3 Yrotation Zrotation Xrotation
				JOINT lShldr
				{
					OFFSET 3.198488 0.000000 0.000000 
					CHANNELS 3 Zrotation Yrotation Xrotation
					JOINT lForeArm
					{
						OFFSET 10.139888 0.000000 0.000000 
						CHANNELS 3 Yrotation Zrotation Xrotation
						JOINT lHand
						{
							OFFSET 8.370511 0.000000 0.000000 
							CHANNELS 3 Zrotation Yrotation Xrotation
							End Site
							{
								OFFSET 4.083176 0.000000 0.000000 
							}
						}
					}
				}
			}
			JOINT rCollar
			{
				OFFSET -3.470700 6.669187 -0.816635 
				CHANNELS 3 Yrotation Zrotation Xrotation
				JOINT rShldr
				{
					OFFSET -3.198488 0.000000 0.000000 
					CHANNELS 3 Zrotation Yrotation Xrotation
					JOINT rForeArm
					{
						OFFSET -10.139888 0.000000 0.000000 
						CHANNELS 3 Yrotation Zrotation Xrotation
						JOINT rHand
						{
							OFFSET -8.370511 0.000000 0.000000 
							CHANNELS 3 Zrotation Yrotation Xrotation
							End Site
							{
								OFFSET -4.083176 0.000000 0.000000 
							}
						}
					}
				}
			}
		}
	}
	JOINT lThigh
	{
		OFFSET 5.308129 -1.633274 1.361059 
		CHANNELS 3 Xrotation Zrotation Yrotation
		JOINT lShin
		{
			OFFSET -2.041588 -20.007561 0.000000 
			CHANNELS 3 Xrotation Zrotation Yrotation
			JOINT lFoot
			{
				OFFSET 0.000000 -19.190928 -1.224953 
				CHANNELS 3 Xrotation Yrotation Zrotation
				End Site
				{
					OFFSET 0.000000 -2.449906 4.627600 
				}
			}
		}
	}
	JOINT rThigh
	{
		OFFSET -5.308129 -1.633274 1.361059 
		CHANNELS 3 Xrotation Zrotation Yrotation
		JOINT rShin
		{
			OFFSET 2.041588 -20.007561 0.000000 
			CHANNELS 3 Xrotation Zrotation Yrotation
			JOINT rFoot
			{
				OFFSET 0.000000 -19.190928 -1.224953 
				CHANNELS 3 Xrotation Yrotation Zrotation
				End Site
				{
					OFFSET 0.000000 -2.449906 4.627600 
				}
			}
		}
	}
}
MOTION
Frames: 8
Frame Time: 0.033333
-33.967876 49.130878 6.359868 -0.117231 1.562497 32.418678 0.000000 0.000000 0.000000 0.811066 -2.050576 1.035099 2.661436 0.054577 3.093230 -3.765727 -1.764731 3.365273 -1.913999 -1.029280 1.260873 -39.598888 -25.835962 -7.159391 -103.391869 3.795274 10.012442 -2.132120 5.319268 -3.559130 7.674922 10.650678 0.844156 32.792984 21.121714 -7.240492 111.461800 -4.399090 6.662176 -13.511965 -11.463749 -2.656984 -1.861669 2.065938 3.643806 7.234405 -3.816985 25.032862 -4.119706 -0.003723 0.284336 6.547824 -13.783294 -13.419671 -0.253346 2.028195 -23.306293 2.324751 0.196506 10.317025 
-33.917465 49.161964 6.452388 -0.273537 1.542951 32.170372 0.000000 0.000000 0.000000 0.918502 -1.952874 0.886351 2.978754 0.145337 2.909115 -3.297734 -1.911173 3.410299 -2.040411 -1.082923 1.350702 -39.611183 -25.862701 -6.383446 -102.162010 3.875884 10.206368 -2.562524 5.715230 -3.574358 7.480060 10.756173 0.925042 32.910248 20.832563 -7.389012 110.794579 -4.267358 6.091887 -14.900041 -11.947474 -2.503817 -1.826015 2.128555 3.713832 7.604873 -3.779086 25.281000 -4.380949 -0.006555 0.484745 6.626435 -13.715054 -13.335811 0.005954 1.896056 -23.212029 2.147008 0.193671 11.068293 
-33.844372 49.167370 6.526558 -0.351684 1.503878 32.168507 0.000000 0.000000 0.000000 1.094342 -1.884422 0.754724 3.248928 0.211294 2.943849 -3.062844 -1.855421 3.566424 -1.903029 -0.595600 1.527417 -40.065170 -27.069319 -6.163987 -100.571671 3.865134 9.996562 -3.036602 7.047927 -3.644501 7.241317 10.829280 1.077564 32.734924 20.583193 -7.349890 110.269279 -4.215712 5.783170 -16.196518 -12.357303 -2.352170 -1.596263 2.091987 3.601878 7.419241 -3.632226 25.293009 -4.353335 0.000556 0.349945 7.016215 -13.820991 -13.789367 -0.045313 2.337137 -22.164698 1.747195 0.131922 10.895301 
-33.798794 49.156422 6.590962 -0.410315 1.591756 32.371418 0.000000 0.000000 0.000000 1.455941 -1.972020 0.721066 3.172015 0.243221 3.144911 -1.842733 -2.055236 3.845388 -2.013278 -0.423790 1.856356 -39.578358 -28.836252 -7.410001 -98.848732 3.642205 9.315864 -3.805510 8.139338 -3.733933 6.927980 11.156073 1.417865 31.474031 20.322966 -7.223510 109.939346 -4.216693 4.952366 -17.085854 -12.639647 -2.238644 -1.421543 1.956640 3.379760 7.428302 -3.444170 25.039227 -4.403862 0.008164 0.141248 7.270957 -13.978389 -14.054053 0.168099 2.416593 -22.093857 1.511374 0.145024 11.791024 
-33.823860 49.158062 6.609391 -0.253949 1.054677 32.319538 0.000000 0.000000 0.000000 1.524170 -1.776715 0.802062 2.825389 0.216695 3.696819 -0.765720 -1.666928 4.083476 -1.915695 -0.325882 1.920531 -38.006905 -30.710543 -9.842343 -97.307991 3.448835 10.381551 0.252865 5.850875 -3.507619 7.165403 11.062740 1.460751 30.628063 20.026468 -7.178910 109.846909 -4.287815 4.831213 -16.530977 -12.666420 -2.285097 -2.126772 2.341108 3.434833 8.033721 -3.358572 24.826181 -4.677680 0.002561 -0.062561 6.773011 -13.627115 -13.689674 0.285149 2.454722 -22.204153 1.391625 0.121238 11.735286 
-33.860683 49.161331 6.611113 -0.224624 0.654292 32.458374 0.000000 0.000000 0.000000 1.778208 -1.786249 0.901308 2.932199 0.480450 4.121096 -1.079359 -1.857934 4.555067 -1.880995 0.302182 2.166018 -36.072830 -33.022213 -13.223334 -95.865242 3.028564 9.275727 1.383986 8.101460 -3.503376 7.445968 11.593581 1.653505 28.289394 19.766737 -8.422769 109.558807 -4.187899 4.674846 -15.081544 -12.107800 -2.465199 -2.587944 2.695329 3.570312 8.402616 -3.325334 24.616903 -4.784804 0.026368 -0.200976 6.538626 -13.363203 -13.622080 0.381274 2.671921 -22.346128 1.266903 0.118976 11.614717 
-33.864521 49.148621 6.597810 -0.097660 0.498046 32.909309 0.000000 0.000000 0.000000 2.110588 -1.942042 0.885184 2.985960 0.466378 4.549733 -1.957614 -1.660850 4.987212 -1.835283 0.216808 2.465577 -32.691097 -35.844860 -17.931427 -94.971176 2.697523 7.715231 3.511454 9.496939 -3.393440 7.758939 11.651712 1.927756 25.898500 19.576815 -11.083083 109.282394 -3.743327 4.031030 -14.458310 -11.513394 -2.583039 -2.914039 2.640519 3.357841 8.474988 -3.145947 24.633701 -4.715300 0.022744 -0.351034 6.403089 -13.375116 -13.784621 0.665579 2.864850 -22.563276 1.065441 0.095677 11.614040 
-33.871243 49.140190 6.557233 0.185547 0.087890 33.613583 0.000000 0.000000 0.000000 2.227921 -2.000441 0.937522 3.518730 0.640030 4.683317 -4.395096 -2.264725 5.434732 -1.738495 0.344078 2.589873 -28.786972 -38.468548 -23.123611 -93.520355 2.190570 7.082500 5.929649 8.812204 -3.284919 8.348900 11.317019 2.025549 23.752605 19.106655 -15.347906 109.011177 -2.838086 1.812434 -15.199976 -10.696519 -2.629817 -4.125005 2.691019 3.141646 9.507771 -2.928672 24.677048 -4.969590 0.003412 -0.274636 6.129192 -13.315952 -13.851487 0.783705 3.096285 -22.800386 1.013997 0.076579 11.661128 
